<svg xmlns="http://www.w3.org/2000/svg" xmlns:xlink="http://www.w3.org/1999/xlink" viewBox="0 0 569.8 174.79"><defs><style>.cls-1{fill:url(#linear-gradient);}.cls-2{opacity:0.7;}.cls-3{fill:#fff;}</style><linearGradient id="linear-gradient" y1="81.15" x2="569.8" y2="81.15" gradientUnits="userSpaceOnUse"><stop offset="0" stop-color="#ff3cac"/><stop offset="0.74" stop-color="#784ba0"/><stop offset="1" stop-color="#2b86c5"/></linearGradient></defs><g id="Layer_2" data-name="Layer 2"><g id="Layer_1-2" data-name="Layer 1"><path d="M51.56,110.73A60.88,60.88,0,0,1,26,105.38Q14.26,100,7.13,87.8T0,55.6Q0,37.32,7.13,25A46,46,0,0,1,27,6.3Q39.67,0,56.31,0A73.15,73.15,0,0,1,77.7,3a62.74,62.74,0,0,1,15.92,7,24.72,24.72,0,0,1,6.18,5.94A13.56,13.56,0,0,1,102.17,24V97.9h-24V25.42a46.63,46.63,0,0,0-8.8-3.92,39.42,39.42,0,0,0-12.59-1.78q-14.51,0-23.41,8.91T24.47,55.36q0,20,8.8,28t21.86,8.08q9.73,0,15.68-3.32A44.65,44.65,0,0,0,80.55,81l1,20.43A37.58,37.58,0,0,1,70,107.88Q62.49,110.73,51.56,110.73Zm26.85,5.7v-24h23.76v25.19q0,15.91-7.12,25.78a40.61,40.61,0,0,1-19.37,14.38,79.09,79.09,0,0,1-27.44,4.51,78.66,78.66,0,0,1-21-2.49q-8.91-2.51-12.48-4.64-7.6-4.51-7.6-11.64a12.1,12.1,0,0,1,1.78-6.77,12.89,12.89,0,0,1,4.16-4.16,56.45,56.45,0,0,0,14.49,6.77,61.25,61.25,0,0,0,19.25,3q15.21,0,23.41-6.18T78.41,116.43Z"/><path d="M133.06,72.47l-1.19-17.82,67.49-9.5a29,29,0,0,0-7.84-18.54Q184.38,19,171.32,19a28.84,28.84,0,0,0-22.1,9.5q-8.79,9.51-9,27.09l.48,9q1.89,16.88,12.11,25.31t26.86,8.43a52.16,52.16,0,0,0,18.29-3.09,57.27,57.27,0,0,0,13.31-6.65,13.26,13.26,0,0,1,4.63,4.52,11.41,11.41,0,0,1,1.78,6.17q0,5.24-5.22,9.51t-14.14,6.65a78.22,78.22,0,0,1-20.08,2.38q-18.3,0-32.2-6.78a48.59,48.59,0,0,1-21.5-20.19Q116.91,77.47,116.9,58a67.15,67.15,0,0,1,4.28-24.83A52.73,52.73,0,0,1,132.82,15,48.91,48.91,0,0,1,150.17,3.8,59.65,59.65,0,0,1,171.56,0q15,0,26.49,6.3A45.39,45.39,0,0,1,216,23.76a50.11,50.11,0,0,1,6.42,25.43q0,5.94-2.86,8.79a12.58,12.58,0,0,1-8.07,3.32Z"/><path d="M336,41.58V65.11H311.51V42.53q0-11.64-6.65-17.22T287,19.72a48.93,48.93,0,0,0-15,2.14,55,55,0,0,0-11.41,5V65.11H236.19v-39a16,16,0,0,1,2.25-8.91,23.52,23.52,0,0,1,7-6.54,79,79,0,0,1,17.47-7.36A81.68,81.68,0,0,1,287,0q23,0,36,10.34T336,41.58ZM236.19,52.75h24.47v61.31a24.35,24.35,0,0,1-4.63,1.3,33.16,33.16,0,0,1-6.54.6q-6.65,0-10-2.62c-2.22-1.74-3.32-4.59-3.32-8.55Zm75.32,0H336v61.31a24.26,24.26,0,0,1-4.75,1.3,33.59,33.59,0,0,1-6.41.6q-6.9,0-10.1-2.62t-3.21-8.55Z"/><path d="M367.11,72.47l-1.19-17.82,67.49-9.5a29,29,0,0,0-7.85-18.54Q418.44,19,405.37,19a28.84,28.84,0,0,0-22.1,9.5q-8.79,9.51-9,27.09l.47,9q1.91,16.88,12.12,25.31t26.85,8.43A52.18,52.18,0,0,0,432,95.28a57.27,57.27,0,0,0,13.31-6.65,13.26,13.26,0,0,1,4.63,4.52,11.41,11.41,0,0,1,1.78,6.17q0,5.24-5.23,9.51t-14.13,6.65a78.22,78.22,0,0,1-20.08,2.38q-18.3,0-32.2-6.78a48.54,48.54,0,0,1-21.5-20.19Q350.94,77.47,351,58a67.15,67.15,0,0,1,4.28-24.83A52.73,52.73,0,0,1,366.87,15,48.91,48.91,0,0,1,384.22,3.8,59.65,59.65,0,0,1,405.61,0q15,0,26.49,6.3A45.39,45.39,0,0,1,450,23.76a50.1,50.1,0,0,1,6.41,25.43q0,5.94-2.85,8.79a12.58,12.58,0,0,1-8.08,3.32Z"/><path d="M480.45,72.47l-1.19-17.82,67.49-9.5a29,29,0,0,0-7.84-18.54Q531.77,19,518.71,19a28.84,28.84,0,0,0-22.1,9.5q-8.79,9.51-9,27.09l.47,9q1.9,16.88,12.12,25.31T527,98.37a52.16,52.16,0,0,0,18.29-3.09,57.27,57.27,0,0,0,13.31-6.65,13.26,13.26,0,0,1,4.63,4.52A11.41,11.41,0,0,1,565,99.32q0,5.24-5.23,9.51t-14.13,6.65a78.22,78.22,0,0,1-20.08,2.38q-18.3,0-32.2-6.78a48.59,48.59,0,0,1-21.5-20.19Q464.29,77.47,464.29,58a67.15,67.15,0,0,1,4.28-24.83A52.73,52.73,0,0,1,480.21,15,48.91,48.91,0,0,1,497.56,3.8,59.65,59.65,0,0,1,519,0q15,0,26.49,6.3a45.39,45.39,0,0,1,17.94,17.46,50.11,50.11,0,0,1,6.42,25.43q0,5.94-2.86,8.79a12.58,12.58,0,0,1-8.08,3.32Z"/><path class="cls-1" d="M51.56,110.73A60.88,60.88,0,0,1,26,105.38Q14.26,100,7.13,87.8T0,55.6Q0,37.32,7.13,25A46,46,0,0,1,27,6.3Q39.67,0,56.31,0A73.15,73.15,0,0,1,77.7,3a62.74,62.74,0,0,1,15.92,7,24.72,24.72,0,0,1,6.18,5.94A13.56,13.56,0,0,1,102.17,24V97.9h-24V25.42a46.63,46.63,0,0,0-8.8-3.92,39.42,39.42,0,0,0-12.59-1.78q-14.51,0-23.41,8.91T24.47,55.36q0,20,8.8,28t21.86,8.08q9.73,0,15.68-3.32A44.65,44.65,0,0,0,80.55,81l1,20.43A37.58,37.58,0,0,1,70,107.88Q62.49,110.73,51.56,110.73Zm26.85,5.7v-24h23.76v25.19q0,15.91-7.12,25.78a40.61,40.61,0,0,1-19.37,14.38,79.09,79.09,0,0,1-27.44,4.51,78.66,78.66,0,0,1-21-2.49q-8.91-2.51-12.48-4.64-7.6-4.51-7.6-11.64a12.1,12.1,0,0,1,1.78-6.77,12.89,12.89,0,0,1,4.16-4.16,56.45,56.45,0,0,0,14.49,6.77,61.25,61.25,0,0,0,19.25,3q15.21,0,23.41-6.18T78.41,116.43Z"/><path class="cls-1" d="M133.06,72.47l-1.19-17.82,67.49-9.5a29,29,0,0,0-7.84-18.54Q184.38,19,171.32,19a28.84,28.84,0,0,0-22.1,9.5q-8.79,9.51-9,27.09l.48,9q1.89,16.88,12.11,25.31t26.86,8.43a52.16,52.16,0,0,0,18.29-3.09,57.27,57.27,0,0,0,13.31-6.65,13.26,13.26,0,0,1,4.63,4.52,11.41,11.41,0,0,1,1.78,6.17q0,5.24-5.22,9.51t-14.14,6.65a78.22,78.22,0,0,1-20.08,2.38q-18.3,0-32.2-6.78a48.59,48.59,0,0,1-21.5-20.19Q116.91,77.47,116.9,58a67.15,67.15,0,0,1,4.28-24.83A52.73,52.73,0,0,1,132.82,15,48.91,48.91,0,0,1,150.17,3.8,59.65,59.65,0,0,1,171.56,0q15,0,26.49,6.3A45.39,45.39,0,0,1,216,23.76a50.11,50.11,0,0,1,6.42,25.43q0,5.94-2.86,8.79a12.58,12.58,0,0,1-8.07,3.32Z"/><path class="cls-1" d="M336,41.58V65.11H311.51V42.53q0-11.64-6.65-17.22T287,19.72a48.93,48.93,0,0,0-15,2.14,55,55,0,0,0-11.41,5V65.11H236.19v-39a16,16,0,0,1,2.25-8.91,23.52,23.52,0,0,1,7-6.54,79,79,0,0,1,17.47-7.36A81.68,81.68,0,0,1,287,0q23,0,36,10.34T336,41.58ZM236.19,52.75h24.47v61.31a24.35,24.35,0,0,1-4.63,1.3,33.16,33.16,0,0,1-6.54.6q-6.65,0-10-2.62c-2.22-1.74-3.32-4.59-3.32-8.55Zm75.32,0H336v61.31a24.26,24.26,0,0,1-4.75,1.3,33.59,33.59,0,0,1-6.41.6q-6.9,0-10.1-2.62t-3.21-8.55Z"/><path class="cls-1" d="M367.11,72.47l-1.19-17.82,67.49-9.5a29,29,0,0,0-7.85-18.54Q418.44,19,405.37,19a28.84,28.84,0,0,0-22.1,9.5q-8.79,9.51-9,27.09l.47,9q1.91,16.88,12.12,25.31t26.85,8.43A52.18,52.18,0,0,0,432,95.28a57.27,57.27,0,0,0,13.31-6.65,13.26,13.26,0,0,1,4.63,4.52,11.41,11.41,0,0,1,1.78,6.17q0,5.24-5.23,9.51t-14.13,6.65a78.22,78.22,0,0,1-20.08,2.38q-18.3,0-32.2-6.78a48.54,48.54,0,0,1-21.5-20.19Q350.94,77.47,351,58a67.15,67.15,0,0,1,4.28-24.83A52.73,52.73,0,0,1,366.87,15,48.91,48.91,0,0,1,384.22,3.8,59.65,59.65,0,0,1,405.61,0q15,0,26.49,6.3A45.39,45.39,0,0,1,450,23.76a50.1,50.1,0,0,1,6.41,25.43q0,5.94-2.85,8.79a12.58,12.58,0,0,1-8.08,3.32Z"/><path class="cls-1" d="M480.45,72.47l-1.19-17.82,67.49-9.5a29,29,0,0,0-7.84-18.54Q531.77,19,518.71,19a28.84,28.84,0,0,0-22.1,9.5q-8.79,9.51-9,27.09l.47,9q1.9,16.88,12.12,25.31T527,98.37a52.16,52.16,0,0,0,18.29-3.09,57.27,57.27,0,0,0,13.31-6.65,13.26,13.26,0,0,1,4.63,4.52A11.41,11.41,0,0,1,565,99.32q0,5.24-5.23,9.51t-14.13,6.65a78.22,78.22,0,0,1-20.08,2.38q-18.3,0-32.2-6.78a48.59,48.59,0,0,1-21.5-20.19Q464.29,77.47,464.29,58a67.15,67.15,0,0,1,4.28-24.83A52.73,52.73,0,0,1,480.21,15,48.91,48.91,0,0,1,497.56,3.8,59.65,59.65,0,0,1,519,0q15,0,26.49,6.3a45.39,45.39,0,0,1,17.94,17.46,50.11,50.11,0,0,1,6.42,25.43q0,5.94-2.86,8.79a12.58,12.58,0,0,1-8.08,3.32Z"/><g class="cls-2"><path class="cls-3" d="M352.88,163.4c-.24,1.14-.66,3.11-.77,4H350a25.59,25.59,0,0,1,.45-2.6,5.85,5.85,0,0,1-5.55,2.92,4.42,4.42,0,0,1-4.73-4.7c0-3.49,2.54-5.74,7.56-6.17a43.54,43.54,0,0,1,4.43-.17l.25-1.17c.49-2.27.14-4.48-3.37-4.48-2.83,0-3.74,1.55-4.33,3.24h-2.2c.64-2.64,2.42-5,6.76-5,3.76,0,6.23,1.72,5.23,6.4Zm-1.06-5a33.06,33.06,0,0,0-3.95.15c-3.13.27-5.39,1.53-5.39,4.23a2.84,2.84,0,0,0,3.13,3.07c3.92,0,5.32-3.28,6-6.39Z"/><path class="cls-3" d="M358.79,162a3.7,3.7,0,0,0,4.09,3.92c2.4,0,3.84-1.42,3.84-3.34,0-1.55-.84-2.54-3.54-3.74-2.91-1.31-4.35-2.27-4.35-4.72,0-2.64,1.9-4.86,5.66-4.86,4.14,0,5.54,2.67,5.52,5.32h-2.1c-.11-1.94-.92-3.51-3.68-3.51-2,0-3.19,1.15-3.19,2.84,0,1.39.74,1.95,3.12,3,2.92,1.31,4.83,2.54,4.83,5.3,0,2.93-2,5.48-6.37,5.48-3.95,0-6.07-2.24-6-5.73Z"/><path class="cls-3" d="M375.73,158c2.3-2.11,6.82-6.07,9.42-8.53H388c-2.49,2.32-5.18,4.61-7.74,6.9,1.54,3.52,3.15,7.54,4.72,11H382.5c-1-2.34-2.83-6.8-4-9.51-.85.79-2.4,1.94-3.29,2.7l-1.44,6.81h-2.16l5.43-25.86h2.16Z"/><path class="cls-3" d="M398.57,155.07c.63-3,1-4.72,1.16-5.57h2.11c-.07.52-.28,1.82-.5,2.77a6,6,0,0,1,5.18-3.06c2.54,0,3.73,1.52,3.87,3.27a6.62,6.62,0,0,1,5.62-3.27c2.73,0,5,1.67,4,6.47l-2.46,11.68h-2.14l2.4-11.47c.53-2.39.28-4.71-2.39-4.71-2.93,0-4.7,2.73-5.36,5.84l-2.17,10.34h-2.15l2.34-11.16c.62-2.95.3-5-2.37-5s-4.59,2.32-5.42,6.14l-2.13,10H396Z"/><path class="cls-3" d="M425.67,158.77a9.91,9.91,0,0,0-.23,2.23c0,2.87,1.15,4.82,4,4.82,3.21,0,4.26-2.26,4.94-3.47h2.19c-.78,1.88-2.54,5.36-7.4,5.36-4.22,0-5.91-2.92-5.91-6.66,0-5.12,2.8-11.84,8.9-11.84,4.07,0,5.7,2.79,5.7,6.12a15.63,15.63,0,0,1-.46,3.44Zm9.84-1.74a7.74,7.74,0,0,0,.17-1.65c0-2.67-1.2-4.32-3.86-4.32-3.08,0-5,2.84-5.8,6Z"/><path class="cls-3" d="M460.71,163.4c-.24,1.14-.66,3.11-.77,4h-2.07c.1-.73.2-1.41.46-2.6a5.88,5.88,0,0,1-5.56,2.92,4.41,4.41,0,0,1-4.72-4.7c0-3.49,2.53-5.74,7.55-6.17a43.54,43.54,0,0,1,4.43-.17l.25-1.17c.49-2.27.14-4.48-3.37-4.48-2.83,0-3.74,1.55-4.32,3.24h-2.21c.64-2.64,2.42-5,6.76-5,3.76,0,6.23,1.72,5.23,6.4Zm-1-5a33.14,33.14,0,0,0-4,.15c-3.12.27-5.38,1.53-5.38,4.23a2.83,2.83,0,0,0,3.12,3.07c3.93,0,5.32-3.28,6-6.39Z"/><path class="cls-3" d="M467.94,155.1c.78-3.74,1-5,1.16-5.6h2.12c-.1.59-.32,1.86-.56,3a6.21,6.21,0,0,1,5.64-3.27c3.12,0,5.38,2.08,4.37,6.79l-2.4,11.36h-2.22l2.34-11.14c.54-2.61.16-5-2.77-5-3.51,0-5.31,2.93-6.17,6.94l-1.93,9.21h-2.16Z"/><path class="cls-3" d="M486.65,149.5c1,7.55,1.87,13.93,2,15.7h0c.86-1.84,3.31-6.79,7.88-15.7h2.32l-9.88,19c-2.75,5.32-4.26,6.25-7.49,6.25a14,14,0,0,1-1.88-.21l.41-2a8.92,8.92,0,0,0,1.73.16c2.24,0,3.33-1.24,5.25-5l-2.56-18.3Z"/><path class="cls-3" d="M500.7,149.5h3.09l1.17-5.32h2.12l-1.16,5.32h3.83l-.41,1.85h-3.82l-2.62,12.1c-.34,1.59,0,2.29,1.5,2.29a8.53,8.53,0,0,0,2-.29l-.36,1.74a6.94,6.94,0,0,1-2.35.4c-2.23,0-3.7-.84-3-4.11l2.67-12.13h-3.08Z"/><path class="cls-3" d="M516.63,141.5l-2.29,10.9a6.66,6.66,0,0,1,5.79-3.19c2.57,0,5.36,1.4,4.27,6.58L522,167.36h-2.18l2.38-11.29c.63-3,0-4.89-2.69-4.89-3.23,0-5.34,2.44-6.19,6.37l-2.07,9.81H509l5.43-25.86Z"/><path class="cls-3" d="M531.17,149.5h2.16l-3.79,17.86h-2.16Zm1.67-8H535l-.75,3.6h-2.16Z"/><path class="cls-3" d="M537.59,155.1c.79-3.74,1-5,1.17-5.6h2.11c-.1.59-.32,1.86-.56,3a6.21,6.21,0,0,1,5.64-3.27c3.12,0,5.38,2.08,4.38,6.79l-2.41,11.36H545.7L548,156.22c.55-2.61.17-5-2.77-5-3.5,0-5.31,2.93-6.16,6.94l-1.94,9.21H535Z"/><path class="cls-3" d="M566.07,166.42c-1.21,5.54-3.22,8.37-8.28,8.37-4.85,0-5.95-3-5.84-5.37h2.13c.07,2.46,1.5,3.53,3.95,3.53,3.69,0,4.94-2.47,6-6.82l.51-2.09a6.15,6.15,0,0,1-5.67,3.27c-3.43,0-5.23-2.49-5.23-6.59,0-4.83,3-11.51,8.79-11.51,3,0,4.35,1.59,4.58,3.11.21-1,.54-2.3.68-2.82h2.12c-.23.89-.66,2.69-1.17,5.1Zm-10.14-5.84c0,2.8,1,4.79,3.62,4.79,3.58,0,5.47-3.49,6.25-7.09s.58-7.1-3.45-7.1C558.09,151.18,555.93,156.82,555.93,160.58Z"/></g></g></g></svg>